<?xml version="1.0" standalone="no"?>
<!DOCTYPE svg PUBLIC "-//W3C//DTD SVG 20010904//EN"
 "http://www.w3.org/TR/2001/REC-SVG-20010904/DTD/svg10.dtd">
<svg version="1.0" xmlns="http://www.w3.org/2000/svg"
 width="1600.000000pt" height="1600.000000pt" viewBox="0 0 1600.000000 1600.000000"
 preserveAspectRatio="xMidYMid meet">
<metadata>
Created by potrace 1.11, written by Peter Selinger 2001-2013
</metadata>
<g transform="translate(0.000000,1600.000000) scale(0.100000,-0.100000)"
fill="#000000" stroke="none">
<path d="M4494 15987 c-97 -56 -177 -190 -267 -452 -45 -131 -99 -317 -136
-475 -44 -189 -53 -226 -56 -254 -3 -15 -7 -36 -10 -46 -7 -22 -8 -26 -44
-225 -16 -88 -32 -180 -36 -205 -4 -24 -8 -47 -10 -50 -2 -3 -6 -29 -10 -59
-4 -30 -9 -63 -11 -75 -7 -38 -34 -215 -48 -318 -3 -18 -12 -82 -21 -143 -8
-60 -18 -128 -20 -150 -3 -22 -7 -56 -10 -75 -4 -33 -9 -68 -20 -157 -2 -21
-7 -63 -10 -93 -3 -30 -8 -66 -10 -80 -2 -14 -7 -54 -10 -90 -3 -36 -7 -78 -9
-95 -2 -16 -7 -64 -11 -105 -3 -41 -8 -86 -10 -100 -2 -14 -6 -56 -10 -95 -3
-38 -8 -88 -10 -110 -3 -22 -7 -76 -10 -120 -3 -44 -7 -98 -10 -120 -2 -22 -7
-85 -11 -140 -4 -55 -8 -116 -9 -135 -2 -19 -6 -91 -10 -160 -4 -69 -8 -143
-10 -165 -6 -79 -18 -493 -18 -660 -1 -167 11 -636 18 -725 2 -25 6 -92 10
-150 9 -147 21 -313 30 -395 2 -22 7 -71 10 -110 3 -38 8 -77 10 -85 2 -8 7
-51 11 -95 3 -44 8 -82 9 -85 2 -3 6 -33 10 -67 3 -34 7 -70 9 -80 5 -27 15
-92 21 -143 3 -25 10 -70 15 -100 5 -30 12 -71 15 -90 8 -51 25 -151 31 -180
3 -14 7 -38 9 -55 3 -16 9 -52 15 -80 6 -27 12 -59 14 -70 22 -109 48 -237 66
-315 12 -52 23 -102 25 -110 2 -8 11 -46 20 -85 9 -38 18 -77 20 -85 1 -8 8
-35 15 -60 7 -25 14 -52 15 -60 18 -81 145 -530 197 -695 59 -192 138 -437
147 -460 5 -11 15 -42 24 -70 9 -27 81 -237 161 -465 207 -595 247 -714 310
-910 52 -166 122 -405 130 -446 2 -10 13 -55 25 -99 11 -44 22 -91 25 -105 4
-24 20 -101 30 -145 10 -48 36 -215 41 -270 4 -33 9 -71 12 -85 9 -50 11 -477
2 -560 -9 -87 -12 -109 -30 -220 -80 -494 -289 -1120 -594 -1785 -99 -215
-189 -398 -245 -500 -30 -53 -31 -75 -15 -207 23 -185 142 -373 292 -461 109
-63 265 -98 347 -77 17 5 49 11 71 14 22 3 101 14 175 26 221 33 321 48 385
55 22 3 56 7 75 10 19 3 55 8 79 10 24 2 60 7 80 9 47 7 124 15 181 21 25 2
65 7 90 10 48 5 101 11 190 19 30 3 82 8 115 11 33 4 85 8 115 10 104 8 215
16 260 20 276 24 768 40 1205 39 398 -1 632 -8 975 -29 208 -13 295 -19 415
-30 22 -2 74 -7 115 -10 41 -3 116 -10 165 -16 50 -5 113 -11 140 -14 52 -4
115 -11 175 -20 19 -2 64 -7 100 -11 36 -3 74 -8 84 -10 11 -2 44 -6 75 -9 31
-3 63 -7 71 -10 8 -2 40 -6 70 -9 30 -3 64 -8 75 -10 11 -2 45 -7 75 -11 30
-4 63 -9 73 -11 10 -2 51 -8 90 -13 40 -6 83 -13 97 -16 13 -2 40 -7 60 -10
19 -3 58 -9 86 -13 69 -11 126 -8 201 11 270 70 445 312 455 629 1 40 -3 72
-10 81 -13 15 -146 280 -219 437 -133 282 -279 638 -337 817 -77 241 -197 635
-211 693 -1 8 -14 58 -28 110 -14 52 -28 107 -31 123 -20 109 -31 175 -41 263
-3 22 -10 75 -16 119 -11 80 -15 374 -5 430 2 17 7 66 11 110 3 44 8 91 10
105 8 55 18 116 21 135 2 10 6 37 10 60 3 22 7 45 8 50 2 6 6 28 10 50 34 173
136 553 206 765 18 52 34 102 35 110 4 17 128 374 208 600 226 638 392 1147
497 1520 5 19 19 68 31 109 11 41 22 81 24 91 2 9 15 61 29 116 15 54 28 108
31 119 3 11 20 86 39 167 20 80 37 157 40 170 3 12 17 79 31 148 24 112 57
283 70 365 3 17 12 66 20 110 8 44 17 100 20 125 3 25 8 52 10 60 2 8 7 38 10
65 3 28 7 61 10 75 2 14 7 49 10 79 4 30 8 63 10 73 2 11 7 47 10 81 3 34 8
69 10 77 2 8 7 53 10 100 4 47 8 87 10 90 2 3 6 46 10 95 4 50 8 106 10 125 2
19 6 80 10 135 4 55 8 123 11 150 26 331 26 1346 -1 1716 -2 30 -7 105 -10
167 -4 63 -8 122 -10 132 -2 10 -5 47 -6 82 -2 35 -8 69 -16 76 -7 7 -14 30
-14 50 -1 20 -2 51 -4 67 -1 17 -5 63 -9 103 -3 40 -8 92 -10 115 -3 23 -8 69
-11 102 -3 33 -8 80 -11 105 -2 25 -7 68 -9 95 -3 28 -8 66 -10 85 -2 19 -7
60 -10 90 -3 30 -8 71 -10 90 -2 19 -7 59 -10 89 -4 30 -8 61 -10 70 -1 9 -6
45 -10 81 -4 36 -8 72 -10 80 -1 8 -6 42 -10 75 -4 33 -9 69 -10 80 -2 11 -6
43 -10 70 -3 28 -10 75 -15 105 -5 30 -12 75 -15 100 -3 25 -9 70 -15 100 -5
30 -11 71 -14 90 -12 78 -58 343 -81 460 -151 781 -318 1237 -481 1315 -29 13
-388 15 -3391 15 -2615 -1 -3363 -3 -3379 -13z m6000 -1215 c10 -35 55 -239
61 -282 4 -24 8 -47 10 -50 2 -3 6 -26 10 -50 3 -25 8 -52 10 -60 2 -8 6 -31
9 -50 3 -19 15 -93 26 -165 12 -71 23 -141 25 -155 2 -14 17 -119 33 -235 30
-207 37 -259 47 -352 3 -27 8 -61 10 -78 2 -16 7 -52 10 -80 3 -27 7 -63 10
-80 2 -16 7 -59 10 -95 3 -36 8 -76 10 -90 4 -22 10 -78 20 -185 2 -16 6 -66
9 -110 4 -44 9 -89 11 -100 2 -11 7 -58 11 -105 l6 -86 -603 0 c-457 -1 -617
-4 -659 -14 -94 -22 -161 -59 -231 -129 -76 -76 -134 -183 -173 -321 -23 -83
-27 -101 -42 -205 -3 -27 -8 -57 -9 -66 -18 -97 -27 -649 -13 -734 17 -102 51
-257 98 -445 82 -329 122 -503 145 -639 8 -46 17 -91 19 -100 19 -66 28 -415
14 -517 -12 -80 -51 -186 -93 -249 -93 -140 -262 -215 -485 -216 -459 0 -657
261 -608 804 11 130 51 387 62 405 2 4 7 25 10 47 4 22 13 64 21 95 8 30 16
66 19 80 2 14 34 144 71 290 95 383 108 459 108 675 0 99 -2 241 -6 316 -6
120 -11 171 -33 322 -3 20 -14 70 -25 110 -11 39 -22 81 -24 92 -3 11 -23 58
-46 105 -51 103 -145 202 -229 242 -111 52 -99 51 -1233 52 -583 1 -1062 -1
-1067 -4 -4 -3 -11 -52 -14 -110 -4 -58 -9 -134 -11 -170 -26 -356 -34 -616
-34 -1045 0 -393 8 -694 24 -880 2 -27 7 -88 10 -135 7 -91 12 -152 20 -240 3
-30 8 -80 11 -110 10 -113 48 -423 59 -491 3 -15 7 -47 10 -70 3 -24 12 -87
21 -139 8 -52 18 -108 20 -125 3 -16 7 -37 9 -45 2 -8 6 -31 9 -50 3 -19 10
-60 16 -90 6 -30 13 -71 16 -90 3 -19 15 -77 26 -129 11 -51 21 -101 23 -110
29 -145 177 -750 205 -836 6 -16 42 -138 81 -270 75 -256 299 -937 356 -1085
29 -76 199 -569 274 -795 143 -430 253 -859 285 -1115 3 -19 7 -48 9 -65 5
-40 15 -137 20 -205 6 -73 6 -358 1 -390 -2 -14 -7 -56 -11 -95 -15 -159 -101
-554 -164 -755 -30 -96 -33 -92 57 -84 42 3 88 8 102 10 67 8 422 18 645 18
270 0 574 -12 715 -29 25 -2 74 -7 110 -10 72 -6 311 -34 350 -41 14 -2 45 -6
70 -10 25 -3 81 -12 125 -20 44 -7 96 -16 115 -19 19 -4 73 -14 119 -23 l83
-17 39 -130 c41 -137 125 -389 164 -490 99 -260 107 -284 87 -271 -11 6 -173
23 -512 51 -30 2 -84 7 -120 10 -67 6 -134 10 -300 20 -52 3 -131 8 -175 10
-526 31 -1417 26 -1955 -10 -223 -15 -279 -19 -412 -30 -35 -3 -85 -7 -113 -9
-78 -6 -187 -17 -220 -21 -16 -2 -67 -7 -112 -11 l-82 -6 31 78 c72 186 179
504 242 719 68 234 148 581 161 695 3 30 10 73 15 95 5 22 12 74 16 115 3 41
8 78 10 81 4 7 17 282 17 369 1 81 -13 382 -18 390 -1 3 -6 43 -10 90 -4 47
-9 87 -10 90 -2 3 -7 35 -10 70 -4 36 -9 68 -11 71 -2 4 -6 26 -9 50 -3 24 -7
53 -9 64 -65 322 -121 548 -209 840 -56 184 -198 608 -327 975 -220 625 -361
1058 -464 1425 -44 157 -123 465 -132 515 -3 14 -14 61 -24 105 -27 108 -87
408 -96 470 -3 28 -8 52 -9 55 -2 3 -6 24 -9 46 -4 22 -9 51 -11 64 -7 32 -23
135 -35 225 -5 39 -11 86 -14 105 -7 47 -25 184 -31 240 -3 25 -7 63 -10 85
-2 22 -7 72 -10 110 -4 39 -8 86 -10 105 -30 328 -40 590 -40 1070 0 380 6
628 20 805 2 22 6 90 10 150 3 61 8 126 10 145 2 19 7 78 10 130 3 52 8 106
10 120 2 14 6 61 10 105 3 44 8 91 10 105 2 14 6 57 10 95 3 39 10 108 15 155
5 47 12 112 15 145 3 33 7 67 10 75 2 8 6 44 10 80 4 36 8 76 10 90 2 14 6 52
10 85 3 33 8 67 10 75 2 8 7 40 10 70 3 30 8 66 10 80 2 14 11 77 20 140 17
122 18 130 30 198 4 23 8 52 10 65 1 12 8 54 14 92 7 39 14 84 17 100 2 17 11
66 19 110 8 44 17 94 20 110 2 17 7 41 10 55 27 136 35 180 40 207 3 18 10 45
16 60 6 15 10 29 9 31 -3 4 11 76 16 84 2 3 1179 6 2614 6 2429 0 2610 -1
2614 -16z"/>
</g>
</svg>
